<svg xmlns="http://www.w3.org/2000/svg" width="21" height="13" viewBox="0 0 21 13">
  <path d="M10.8 10.6h9.6c.3 0 .6-.3.6-.6s-.3-.6-.6-.6h-9.6C10.5 8.1 9.3 7 7.9 7 6.4 7 5.2 8 5 9.4H.6c-.3.1-.6.3-.6.7 0 .3.3.6.6.6h4.3C5.2 12 6.4 13 7.8 13c1.5 0 2.7-1 3-2.4zM6 10.1c0-1 .8-1.8 1.8-1.8s1.8.8 1.8 1.8-.8 1.8-1.8 1.8c-1-.1-1.8-.9-1.8-1.8zM15.7 3.5h4.7c.3 0 .6-.3.6-.6s-.3-.6-.6-.6h-4.7C15.4 1 14.2 0 12.8 0c-1.5 0-2.7 1-2.9 2.4H.6c-.3 0-.6.2-.6.5s.3.6.6.6h9.2c.3 1.3 1.5 2.4 2.9 2.4s2.7-1 3-2.4zM11 2.9c0-1 .8-1.8 1.8-1.8s1.8.8 1.8 1.8-.8 1.8-1.8 1.8S11 3.9 11 2.9z"/>
</svg>