<svg width="192" height="33" viewBox="0 0 192 33" fill="none" xmlns="http://www.w3.org/2000/svg">
<path d="M53.9436 22.5935L54.4682 23.5985C52.7484 24.6329 50.7743 25.1634 48.7695 25.1299C43.7623 25.1299 40.8772 22.458 40.8772 16.6914C40.8772 11.1641 43.19 7.80619 49.1033 7.80619C50.7587 7.78407 52.4052 8.05404 53.9675 8.60378C53.9198 9.72839 53.9198 10.9966 53.9675 12.0972H52.8945L52.6084 11.0444C52.2269 9.79219 51.4877 8.93877 49.2225 8.93877C45.6698 8.93877 44.7637 11.5708 44.7637 16.1171C44.7637 20.4241 45.638 23.6304 49.7709 23.6304C51.222 23.6613 52.6573 23.3239 53.9436 22.6494V22.5935ZM61.6929 9.20197C60.6438 9.20197 60.5007 9.46518 60.5007 10.183V14.171H61.4465C66.0245 14.171 69.2753 14.6974 69.2753 19.3154C69.2753 23.9335 66.7478 24.8986 62.6626 24.8986H55.9863V24.3722C56.8208 24.1808 56.9321 23.9415 56.9321 23.0322V9.95969C56.9321 9.05043 56.8208 8.81116 55.9863 8.62771V8.1013H68.401C68.3613 9.32161 68.3613 10.4941 68.401 11.7383H67.487L67.2724 11.0444C66.7478 9.32161 66.1517 9.15412 63.9819 9.15412L61.6929 9.20197ZM62.4877 23.8458C64.6575 23.8458 65.5159 22.3862 65.5159 19.467C65.5159 16.7392 64.7767 15.2078 61.9631 15.2078H60.5007V22.3862C60.5007 23.4629 60.7948 23.8458 61.979 23.8458H62.4877ZM76.5 9.20197C75.7926 9.20197 75.7052 9.3934 75.7052 9.99957V15.1839H77.9227C78.9329 15.2484 79.9445 15.0792 80.8793 14.6894V16.7951C80.3071 16.3883 78.8526 16.2926 77.9227 16.2926H75.7052V22.5377C75.7052 23.5427 76.1105 23.8777 78.3042 23.8777H78.781C80.9508 23.8777 81.5231 23.7341 81.9602 21.6524L82.1112 20.9186H83.1604C83.1127 22.2107 83.1127 23.5267 83.1604 24.8188H71.1351V24.2924C71.9299 24.101 72.0889 23.8617 72.0889 22.9525V9.95969C72.0889 9.05043 71.9696 8.81116 71.1351 8.62771V8.1013H82.763C82.7153 9.32161 82.7153 10.4941 82.763 11.7383H81.8649L81.6503 11.0444C81.1257 9.32161 80.5296 9.15412 78.3598 9.15412L76.5 9.20197ZM85.2904 24.8428V24.3163C86.125 24.1249 86.2362 23.8856 86.2362 22.9764V9.95969C86.2362 9.05043 86.125 8.81116 85.2904 8.62771V8.1013H92.2052C95.5195 8.1013 97.9993 8.89889 97.9993 12.8869C97.9993 16.8748 95.5195 18.1988 91.4899 18.1988H89.8208V22.9844C89.8208 23.8936 89.94 24.1329 90.7825 24.3243V24.8507L85.2904 24.8428ZM91.5058 17.1619C93.7312 17.1619 94.2558 15.3674 94.2558 12.7672C94.2558 10.5659 93.461 9.15412 91.2514 9.15412H90.854C90.1308 9.15412 89.8049 9.27376 89.8049 10.0634V17.1619H91.5058Z" fill="#319B42"/>
<path d="M10.7623 20.4721L0.80352 14.7215C0.80352 15.0804 0.80352 15.4473 0.80352 15.8221C0.80352 16.0614 0.80352 16.3007 0.80352 16.532C0.830337 17.297 0.910007 18.0592 1.04196 18.8131C1.38306 20.68 2.04749 22.4724 3.00511 24.1091C3.25944 24.5478 3.53762 24.9785 3.79991 25.3933C5.78057 28.1438 8.55485 30.2179 11.7479 31.3353L12.495 31.5746H12.5665C14.6491 32.1721 16.8283 32.3536 18.9805 32.109H19.2031C22.9501 31.6961 26.4399 29.9971 29.0824 27.2995L29.1937 27.1799C29.7125 26.6258 30.1932 26.0368 30.6323 25.4172C31.9879 23.51 32.9227 21.3348 33.3743 19.0364C33.3743 19.0364 33.3743 19.0364 33.3743 19.0364V18.9328C33.5611 17.9173 33.6542 16.8867 33.6525 15.8541C33.6525 15.7344 33.6525 15.6148 33.6525 15.4951C33.6354 14.7819 33.5717 14.0705 33.4618 13.3656C33.2038 11.6083 32.6672 9.90379 31.8722 8.31681L10.7623 20.4721ZM10.7623 16.3087L1.48705 10.9568L1.36783 11.3477C1.24066 11.8182 1.12939 12.2968 1.04196 12.7753L10.7623 18.3585L30.974 6.7296C30.6879 6.29092 30.3779 5.87617 30.0521 5.4694L29.8931 5.27L10.7623 16.3087ZM10.7623 12.1532L2.92563 7.6229C2.63156 8.14931 2.36132 8.6837 2.13083 9.21808L10.7782 14.203L28.6373 3.92207C28.1778 3.48155 27.6949 3.0662 27.1908 2.67783L10.7623 12.1532ZM10.7623 7.98979L5.01595 4.70371C4.607 5.15399 4.22483 5.62805 3.87144 6.12343L10.7305 10.1114L25.5297 1.55322C24.9101 1.1899 24.2676 0.867517 23.6063 0.588135L10.7623 7.98979Z" fill="#319B42"/>
<path d="M133.185 18.4224C133.185 17.129 132.803 15.8645 132.088 14.7886C131.373 13.7126 130.356 12.8733 129.166 12.3765C127.976 11.8797 126.666 11.7478 125.401 11.9972C124.137 12.2467 122.974 12.8664 122.06 13.7782C121.146 14.69 120.521 15.853 120.265 17.1206C120.009 18.3882 120.132 19.7036 120.62 20.9008C121.108 22.098 121.938 23.1234 123.006 23.8477C124.074 24.572 125.331 24.9627 126.62 24.9706V27.4033L129.998 24.0135C130.965 23.4368 131.766 22.6187 132.325 21.639C132.883 20.6592 133.18 19.5511 133.185 18.4224V18.4224ZM126.62 22.2349C125.869 22.2349 125.134 22.0113 124.509 21.5923C123.885 21.1734 123.398 20.578 123.11 19.8814C122.823 19.1847 122.747 18.4181 122.894 17.6786C123.041 16.939 123.402 16.2597 123.934 15.7265C124.465 15.1934 125.142 14.8303 125.879 14.6831C126.616 14.536 127.38 14.6115 128.074 14.9001C128.768 15.1887 129.361 15.6773 129.779 16.3043C130.196 16.9312 130.419 17.6683 130.419 18.4224C130.419 19.4335 130.019 20.4032 129.306 21.1182C128.594 21.8332 127.628 22.2349 126.62 22.2349V22.2349Z" fill="#2F9A41"/>
<path d="M101.528 8.11743H105.502L109.882 15.1921L114.261 8.11743H118.235V24.8669H114.595V13.9239L109.905 21.1022H109.81L105.16 13.9957V24.8429H101.568L101.528 8.11743Z" fill="#95A0AB"/>
<path d="M136.952 23.3115C135.625 21.9796 134.894 20.1212 134.894 17.2738C134.894 11.8821 137.072 8.7874 141.665 8.00575L145.862 7.2959L147.022 10.4863L142.309 11.2201C139.845 11.6268 138.59 12.7195 138.256 14.4104C139.483 13.4862 140.981 12.9954 142.516 13.0146C146.259 13.0146 148.318 15.2957 148.318 18.6456C148.318 22.3066 145.592 25.0264 141.522 25.0264C139.834 25.0795 138.192 24.4635 136.952 23.3115ZM144.789 18.7493C144.822 18.3358 144.766 17.92 144.624 17.5304C144.482 17.1408 144.257 16.7868 143.966 16.4927C143.674 16.1986 143.322 15.9714 142.935 15.8267C142.547 15.6821 142.133 15.6234 141.721 15.6547C141.287 15.625 140.852 15.6876 140.445 15.8385C140.037 15.9893 139.665 16.225 139.355 16.53C139.044 16.835 138.801 17.2025 138.642 17.6083C138.483 18.0142 138.411 18.4492 138.431 18.8849C138.415 19.3008 138.485 19.7153 138.637 20.1027C138.788 20.4901 139.018 20.842 139.311 21.1362C139.604 21.4305 139.955 21.6608 140.341 21.8128C140.727 21.9648 141.14 22.0351 141.554 22.0195C141.985 22.0299 142.414 21.9509 142.813 21.7875C143.212 21.6241 143.573 21.3798 143.874 21.0698C144.174 20.7599 144.408 20.3909 144.56 19.9861C144.712 19.5814 144.779 19.1494 144.757 18.7174L144.789 18.7493Z" fill="#95A0AB"/>
<path d="M149.82 21.1341V21.0862C149.82 18.2707 151.95 16.9707 154.994 16.9707C156.077 16.9555 157.153 17.1337 158.173 17.4971V17.2817C158.173 15.7663 157.235 14.889 155.415 14.889C154.228 14.878 153.05 15.103 151.95 15.551L150.957 12.7993C152.518 12.079 154.222 11.7244 155.94 11.7624C156.722 11.7028 157.509 11.7998 158.254 12.0476C158.999 12.2954 159.687 12.6892 160.28 13.206C160.774 13.7639 161.151 14.4155 161.39 15.1224C161.629 15.8293 161.724 16.5771 161.67 17.3216V24.803H158.149V23.4471C157.662 23.9906 157.061 24.4191 156.389 24.7018C155.717 24.9845 154.991 25.1144 154.263 25.0822C151.807 25.0822 149.82 23.6864 149.82 21.1341ZM158.181 20.2886V19.6426C157.45 19.3203 156.659 19.1572 155.86 19.164C154.271 19.164 153.341 19.7862 153.341 20.9427V20.9905C153.341 21.9795 154.136 22.5857 155.328 22.5857C157.037 22.5538 158.189 21.6206 158.189 20.2966L158.181 20.2886Z" fill="#95A0AB"/>
<path d="M164.198 11.874H167.838V19.0125L172.877 11.874H176.326V24.8429H172.718V17.4412L167.488 24.8429H164.23L164.198 11.874Z" fill="#95A0AB"/>
<path d="M192 24.8429H188.097L184.863 16.3405L181.604 24.8429H177.773L183.162 11.874H186.611L192 24.8429Z" fill="#95A0AB"/>
<path d="M174.689 7.26392H165.843V10.1432H174.689V7.26392Z" fill="#95A0AB"/>
</svg>
