<svg width="192" height="33" viewBox="0 0 192 33" fill="none" xmlns="http://www.w3.org/2000/svg">
<path d="M53.9436 22.5935L54.4682 23.5985C52.7484 24.6328 50.7743 25.1633 48.7695 25.1298C43.7623 25.1298 40.8772 22.4579 40.8772 16.6913C40.8772 11.164 43.19 7.80614 49.1033 7.80614C50.7587 7.78402 52.4052 8.05399 53.9675 8.60374C53.9198 9.72834 53.9198 10.9965 53.9675 12.0972H52.8945L52.6084 11.0444C52.2269 9.79215 51.4877 8.93872 49.2225 8.93872C45.6698 8.93872 44.7637 11.5708 44.7637 16.1171C44.7637 20.4241 45.638 23.6304 49.7709 23.6304C51.222 23.6613 52.6573 23.3238 53.9436 22.6493V22.5935ZM61.6929 9.20193C60.6438 9.20193 60.5007 9.46514 60.5007 10.183V14.1709H61.4465C66.0245 14.1709 69.2753 14.6973 69.2753 19.3154C69.2753 23.9335 66.7478 24.8985 62.6626 24.8985H55.9863V24.3721C56.8208 24.1807 56.9321 23.9414 56.9321 23.0322V9.95964C56.9321 9.05039 56.8208 8.81111 55.9863 8.62766V8.10125H68.401C68.3613 9.32157 68.3613 10.494 68.401 11.7383H67.487L67.2724 11.0444C66.7478 9.32157 66.1517 9.15407 63.9819 9.15407L61.6929 9.20193ZM62.4877 23.8457C64.6575 23.8457 65.5159 22.3861 65.5159 19.4669C65.5159 16.7392 64.7767 15.2078 61.9631 15.2078H60.5007V22.3861C60.5007 23.4629 60.7948 23.8457 61.979 23.8457H62.4877ZM76.5 9.20193C75.7926 9.20193 75.7052 9.39335 75.7052 9.99952V15.1839H77.9227C78.9329 15.2483 79.9445 15.0791 80.8793 14.6894V16.795C80.3071 16.3882 78.8526 16.2925 77.9227 16.2925H75.7052V22.5377C75.7052 23.5426 76.1105 23.8776 78.3042 23.8776H78.781C80.9508 23.8776 81.5231 23.7341 81.9602 21.6523L82.1112 20.9186H83.1604C83.1127 22.2107 83.1127 23.5267 83.1604 24.8188H71.1351V24.2924C71.9299 24.1009 72.0889 23.8617 72.0889 22.9524V9.95964C72.0889 9.05039 71.9696 8.81111 71.1351 8.62766V8.10125H82.763C82.7153 9.32157 82.7153 10.494 82.763 11.7383H81.8649L81.6503 11.0444C81.1257 9.32157 80.5296 9.15407 78.3598 9.15407L76.5 9.20193ZM85.2904 24.8427V24.3163C86.125 24.1249 86.2362 23.8856 86.2362 22.9763V9.95964C86.2362 9.05039 86.125 8.81111 85.2904 8.62766V8.10125H92.2052C95.5195 8.10125 97.9993 8.89884 97.9993 12.8868C97.9993 16.8748 95.5195 18.1988 91.4899 18.1988H89.8208V22.9843C89.8208 23.8936 89.94 24.1329 90.7825 24.3243V24.8507L85.2904 24.8427ZM91.5058 17.1619C93.7312 17.1619 94.2558 15.3673 94.2558 12.7672C94.2558 10.5658 93.461 9.15407 91.2514 9.15407H90.854C90.1308 9.15407 89.8049 9.27371 89.8049 10.0633V17.1619H91.5058Z" fill="#319B42"/>
<path d="M10.7623 20.4722L0.80352 14.7216C0.80352 15.0805 0.80352 15.4474 0.80352 15.8222C0.80352 16.0615 0.80352 16.3008 0.80352 16.5321C0.830337 17.2971 0.910007 18.0593 1.04196 18.8132C1.38306 20.6801 2.04749 22.4725 3.00511 24.1092C3.25944 24.5479 3.53762 24.9786 3.79991 25.3933C5.78057 28.1439 8.55485 30.218 11.7479 31.3354L12.495 31.5747H12.5665C14.6491 32.1722 16.8283 32.3537 18.9805 32.1091H19.2031C22.9501 31.6962 26.4399 29.9972 29.0824 27.2996L29.1937 27.18C29.7125 26.6258 30.1932 26.0369 30.6323 25.4173C31.9879 23.5101 32.9227 21.3349 33.3743 19.0365C33.3743 19.0365 33.3743 19.0365 33.3743 19.0365V18.9328C33.5611 17.9174 33.6542 16.8868 33.6525 15.8541C33.6525 15.7345 33.6525 15.6149 33.6525 15.4952C33.6354 14.7819 33.5717 14.0706 33.4618 13.3657C33.2038 11.6084 32.6672 9.90387 31.8722 8.31689L10.7623 20.4722ZM10.7623 16.3088L1.48705 10.9569L1.36783 11.3477C1.24066 11.8183 1.12939 12.2969 1.04196 12.7754L10.7623 18.3586L30.974 6.72968C30.6879 6.29101 30.3779 5.87626 30.0521 5.46949L29.8931 5.27009L10.7623 16.3088ZM10.7623 12.1533L2.92563 7.62299C2.63156 8.1494 2.36132 8.68379 2.13083 9.21817L10.7782 14.2031L28.6373 3.92216C28.1778 3.48164 27.6949 3.06629 27.1908 2.67791L10.7623 12.1533ZM10.7623 7.98988L5.01595 4.7038C4.607 5.15407 4.22483 5.62813 3.87144 6.12351L10.7305 10.1115L25.5297 1.55331C24.9101 1.18998 24.2676 0.867605 23.6063 0.588223L10.7623 7.98988Z" fill="#319B42"/>
<path d="M133.185 18.4223C133.185 17.1289 132.803 15.8645 132.088 14.7885C131.373 13.7125 130.356 12.8732 129.166 12.3764C127.976 11.8797 126.666 11.7477 125.401 11.9971C124.137 12.2466 122.974 12.8663 122.06 13.7781C121.146 14.6899 120.521 15.8529 120.265 17.1205C120.009 18.3881 120.132 19.7035 120.62 20.9007C121.108 22.0979 121.938 23.1233 123.006 23.8476C124.074 24.5719 125.331 24.9627 126.62 24.9705V27.4032L129.998 24.0134C130.965 23.4367 131.766 22.6187 132.325 21.6389C132.883 20.6591 133.18 19.551 133.185 18.4223V18.4223ZM126.62 22.2348C125.869 22.2348 125.134 22.0112 124.509 21.5923C123.885 21.1734 123.398 20.5779 123.11 19.8813C122.823 19.1846 122.747 18.4181 122.894 17.6785C123.041 16.939 123.402 16.2597 123.934 15.7265C124.465 15.1933 125.142 14.8302 125.879 14.6831C126.616 14.536 127.38 14.6115 128.074 14.9C128.768 15.1886 129.361 15.6772 129.779 16.3042C130.196 16.9312 130.419 17.6683 130.419 18.4223C130.419 19.4334 130.019 20.4032 129.306 21.1181C128.594 21.8331 127.628 22.2348 126.62 22.2348V22.2348Z" fill="#2F9A41"/>
<path d="M101.528 8.11738H105.502L109.882 15.192L114.261 8.11738H118.235V24.8668H114.595V13.9239L109.905 21.1022H109.81L105.16 13.9956V24.8429H101.568L101.528 8.11738Z" fill="white"/>
<path d="M136.952 23.3115C135.625 21.9795 134.894 20.1211 134.894 17.2737C134.894 11.882 137.072 8.7873 141.665 8.00566L145.862 7.2958L147.022 10.4862L142.309 11.22C139.845 11.6267 138.59 12.7194 138.256 14.4103C139.483 13.4861 140.981 12.9953 142.516 13.0145C146.259 13.0145 148.318 15.2957 148.318 18.6455C148.318 22.3065 145.592 25.0263 141.522 25.0263C139.834 25.0794 138.192 24.4634 136.952 23.3115ZM144.789 18.7492C144.822 18.3357 144.766 17.9199 144.624 17.5303C144.482 17.1407 144.257 16.7867 143.966 16.4926C143.674 16.1985 143.322 15.9713 142.935 15.8266C142.547 15.682 142.133 15.6233 141.721 15.6546C141.287 15.6249 140.852 15.6875 140.445 15.8384C140.037 15.9892 139.665 16.2249 139.355 16.5299C139.044 16.8349 138.801 17.2024 138.642 17.6082C138.483 18.0141 138.411 18.4491 138.431 18.8848C138.415 19.3007 138.485 19.7152 138.637 20.1026C138.788 20.49 139.018 20.8419 139.311 21.1361C139.604 21.4304 139.955 21.6607 140.341 21.8127C140.727 21.9647 141.14 22.035 141.554 22.0194C141.985 22.0298 142.414 21.9508 142.813 21.7874C143.212 21.624 143.573 21.3797 143.874 21.0697C144.174 20.7598 144.408 20.3908 144.56 19.986C144.712 19.5813 144.779 19.1493 144.757 18.7173L144.789 18.7492Z" fill="white"/>
<path d="M149.82 21.1341V21.0863C149.82 18.2708 151.95 16.9707 154.994 16.9707C156.077 16.9555 157.153 17.1338 158.173 17.4971V17.2817C158.173 15.7663 157.235 14.889 155.415 14.889C154.228 14.878 153.05 15.103 151.95 15.551L150.957 12.7993C152.518 12.079 154.222 11.7245 155.94 11.7624C156.722 11.7029 157.509 11.7998 158.254 12.0476C158.999 12.2954 159.687 12.6892 160.28 13.2061C160.774 13.7639 161.151 14.4156 161.39 15.1225C161.629 15.8294 161.724 16.5772 161.67 17.3216V24.803H158.149V23.4471C157.662 23.9907 157.061 24.4192 156.389 24.7019C155.717 24.9846 154.991 25.1144 154.263 25.0822C151.807 25.0822 149.82 23.6864 149.82 21.1341ZM158.181 20.2887V19.6426C157.45 19.3203 156.659 19.1572 155.86 19.1641C154.271 19.1641 153.341 19.7862 153.341 20.9427V20.9905C153.341 21.9796 154.136 22.5857 155.328 22.5857C157.037 22.5538 158.189 21.6206 158.189 20.2966L158.181 20.2887Z" fill="white"/>
<path d="M164.198 11.8741H167.838V19.0126L172.877 11.8741H176.326V24.843H172.718V17.4413L167.488 24.843H164.23L164.198 11.8741Z" fill="white"/>
<path d="M192 24.843H188.097L184.863 16.3406L181.604 24.843H177.773L183.162 11.8741H186.611L192 24.843Z" fill="white"/>
<path d="M174.689 7.26398H165.843V10.1433H174.689V7.26398Z" fill="white"/>
</svg>
