<svg width="198" height="44" viewBox="0 0 198 44" fill="none" xmlns="http://www.w3.org/2000/svg">
<path d="M59.9436 28.5935L60.4682 29.5985C58.7484 30.6328 56.7743 31.1633 54.7695 31.1298C49.7623 31.1298 46.8772 28.4579 46.8772 22.6913C46.8772 17.164 49.19 13.8061 55.1033 13.8061C56.7587 13.784 58.4052 14.054 59.9675 14.6037C59.9198 15.7283 59.9198 16.9965 59.9675 18.0972H58.8945L58.6084 17.0444C58.2269 15.7921 57.4877 14.9387 55.2225 14.9387C51.6698 14.9387 50.7637 17.5708 50.7637 22.1171C50.7637 26.4241 51.638 29.6304 55.7709 29.6304C57.222 29.6613 58.6573 29.3238 59.9436 28.6493V28.5935ZM67.6929 15.2019C66.6438 15.2019 66.5007 15.4651 66.5007 16.183V20.1709H67.4465C72.0245 20.1709 75.2753 20.6973 75.2753 25.3154C75.2753 29.9335 72.7478 30.8985 68.6626 30.8985H61.9863V30.3721C62.8208 30.1807 62.9321 29.9414 62.9321 29.0322V15.9596C62.9321 15.0504 62.8208 14.8111 61.9863 14.6277V14.1013H74.401C74.3613 15.3216 74.3613 16.494 74.401 17.7383H73.487L73.2724 17.0444C72.7478 15.3216 72.1517 15.1541 69.9819 15.1541L67.6929 15.2019ZM68.4877 29.8457C70.6575 29.8457 71.5159 28.3861 71.5159 25.4669C71.5159 22.7392 70.7767 21.2078 67.9631 21.2078H66.5007V28.3861C66.5007 29.4629 66.7948 29.8457 67.979 29.8457H68.4877ZM82.5 15.2019C81.7926 15.2019 81.7052 15.3934 81.7052 15.9995V21.1839H83.9227C84.9329 21.2483 85.9445 21.0791 86.8793 20.6894V22.795C86.3071 22.3882 84.8526 22.2925 83.9227 22.2925H81.7052V28.5377C81.7052 29.5426 82.1105 29.8776 84.3042 29.8776H84.781C86.9508 29.8776 87.5231 29.7341 87.9602 27.6523L88.1112 26.9186H89.1604C89.1127 28.2107 89.1127 29.5267 89.1604 30.8188H77.1351V30.2924C77.9299 30.1009 78.0889 29.8617 78.0889 28.9524V15.9596C78.0889 15.0504 77.9696 14.8111 77.1351 14.6277V14.1013H88.763C88.7153 15.3216 88.7153 16.494 88.763 17.7383H87.8649L87.6503 17.0444C87.1257 15.3216 86.5296 15.1541 84.3598 15.1541L82.5 15.2019ZM91.2904 30.8427V30.3163C92.125 30.1249 92.2362 29.8856 92.2362 28.9763V15.9596C92.2362 15.0504 92.125 14.8111 91.2904 14.6277V14.1013H98.2052C101.519 14.1013 103.999 14.8988 103.999 18.8868C103.999 22.8748 101.519 24.1988 97.4899 24.1988H95.8208V28.9843C95.8208 29.8936 95.94 30.1329 96.7825 30.3243V30.8507L91.2904 30.8427ZM97.5058 23.1619C99.7312 23.1619 100.256 21.3673 100.256 18.7672C100.256 16.5658 99.461 15.1541 97.2514 15.1541H96.854C96.1308 15.1541 95.8049 15.2737 95.8049 16.0633V23.1619H97.5058Z" fill="#319B42"/>
<path d="M16.7623 26.4722L6.80352 20.7216C6.80352 21.0805 6.80352 21.4474 6.80352 21.8222C6.80352 22.0615 6.80352 22.3008 6.80352 22.5321C6.83034 23.2971 6.91001 24.0593 7.04196 24.8132C7.38306 26.6801 8.04749 28.4725 9.00511 30.1092C9.25944 30.5479 9.53762 30.9786 9.79991 31.3933C11.7806 34.1439 14.5548 36.218 17.7479 37.3354L18.495 37.5747H18.5665C20.6491 38.1722 22.8283 38.3537 24.9805 38.1091H25.2031C28.9501 37.6962 32.4399 35.9972 35.0824 33.2996L35.1937 33.18C35.7125 32.6258 36.1932 32.0369 36.6323 31.4173C37.9879 29.5101 38.9227 27.3349 39.3743 25.0365C39.3743 25.0365 39.3743 25.0365 39.3743 25.0365V24.9328C39.5611 23.9174 39.6542 22.8868 39.6525 21.8541C39.6525 21.7345 39.6525 21.6149 39.6525 21.4952C39.6354 20.7819 39.5717 20.0706 39.4618 19.3657C39.2038 17.6084 38.6672 15.9039 37.8722 14.3169L16.7623 26.4722ZM16.7623 22.3088L7.48705 16.9569L7.36783 17.3477C7.24066 17.8183 7.12939 18.2969 7.04196 18.7754L16.7623 24.3586L36.974 12.7297C36.6879 12.291 36.3779 11.8763 36.0521 11.4695L35.8931 11.2701L16.7623 22.3088ZM16.7623 18.1533L8.92563 13.623C8.63156 14.1494 8.36132 14.6838 8.13083 15.2182L16.7782 20.2031L34.6373 9.92216C34.1778 9.48164 33.6949 9.06629 33.1908 8.67791L16.7623 18.1533ZM16.7623 13.9899L11.0159 10.7038C10.607 11.1541 10.2248 11.6281 9.87144 12.1235L16.7305 16.1115L31.5297 7.55331C30.9101 7.18998 30.2676 6.8676 29.6063 6.58822L16.7623 13.9899Z" fill="#319B42"/>
<path d="M139.185 24.4223C139.185 23.1289 138.803 21.8645 138.088 20.7885C137.373 19.7125 136.356 18.8732 135.166 18.3764C133.976 17.8797 132.666 17.7477 131.401 17.9971C130.137 18.2466 128.974 18.8663 128.06 19.7781C127.146 20.6899 126.521 21.8529 126.265 23.1205C126.009 24.3881 126.132 25.7035 126.62 26.9007C127.108 28.0979 127.938 29.1233 129.006 29.8476C130.074 30.5719 131.331 30.9627 132.62 30.9705V33.4032L135.998 30.0134C136.965 29.4367 137.766 28.6187 138.325 27.6389C138.883 26.6591 139.18 25.551 139.185 24.4223V24.4223ZM132.62 28.2348C131.869 28.2348 131.134 28.0112 130.509 27.5923C129.885 27.1734 129.398 26.5779 129.11 25.8813C128.823 25.1846 128.747 24.4181 128.894 23.6785C129.041 22.939 129.402 22.2597 129.934 21.7265C130.465 21.1933 131.142 20.8302 131.879 20.6831C132.616 20.536 133.38 20.6115 134.074 20.9C134.768 21.1886 135.361 21.6772 135.779 22.3042C136.196 22.9312 136.419 23.6683 136.419 24.4223C136.419 25.4334 136.019 26.4032 135.306 27.1181C134.594 27.8331 133.628 28.2348 132.62 28.2348V28.2348Z" fill="#2F9A41"/>
<path d="M107.528 14.1174H111.502L115.882 21.192L120.261 14.1174H124.235V30.8668H120.595V19.9239L115.905 27.1022H115.81L111.16 19.9956V30.8429H107.568L107.528 14.1174Z" fill="white"/>
<path d="M142.952 29.3115C141.625 27.9795 140.894 26.1211 140.894 23.2737C140.894 17.882 143.072 14.7873 147.665 14.0057L151.862 13.2958L153.022 16.4862L148.309 17.22C145.845 17.6267 144.59 18.7194 144.256 20.4103C145.483 19.4861 146.981 18.9953 148.516 19.0145C152.259 19.0145 154.318 21.2957 154.318 24.6455C154.318 28.3065 151.592 31.0263 147.522 31.0263C145.834 31.0794 144.192 30.4634 142.952 29.3115ZM150.789 24.7492C150.822 24.3357 150.766 23.9199 150.624 23.5303C150.482 23.1407 150.257 22.7867 149.966 22.4926C149.674 22.1985 149.322 21.9713 148.935 21.8266C148.547 21.682 148.133 21.6233 147.721 21.6546C147.287 21.6249 146.852 21.6875 146.445 21.8384C146.037 21.9892 145.665 22.2249 145.355 22.5299C145.044 22.8349 144.801 23.2024 144.642 23.6082C144.483 24.0141 144.411 24.4491 144.431 24.8848C144.415 25.3007 144.485 25.7152 144.637 26.1026C144.788 26.49 145.018 26.8419 145.311 27.1361C145.604 27.4304 145.955 27.6607 146.341 27.8127C146.727 27.9647 147.14 28.035 147.554 28.0194C147.985 28.0298 148.414 27.9508 148.813 27.7874C149.212 27.624 149.573 27.3797 149.874 27.0697C150.174 26.7598 150.408 26.3908 150.56 25.986C150.712 25.5813 150.779 25.1493 150.757 24.7173L150.789 24.7492Z" fill="white"/>
<path d="M155.82 27.1341V27.0863C155.82 24.2708 157.95 22.9707 160.994 22.9707C162.077 22.9555 163.153 23.1338 164.173 23.4971V23.2817C164.173 21.7663 163.235 20.889 161.415 20.889C160.228 20.878 159.05 21.103 157.95 21.551L156.957 18.7993C158.518 18.079 160.222 17.7245 161.94 17.7624C162.722 17.7029 163.509 17.7998 164.254 18.0476C164.999 18.2954 165.687 18.6892 166.28 19.2061C166.774 19.7639 167.151 20.4156 167.39 21.1225C167.629 21.8294 167.724 22.5772 167.67 23.3216V30.803H164.149V29.4471C163.662 29.9907 163.061 30.4192 162.389 30.7019C161.717 30.9846 160.991 31.1144 160.263 31.0822C157.807 31.0822 155.82 29.6864 155.82 27.1341ZM164.181 26.2887V25.6426C163.45 25.3203 162.659 25.1572 161.86 25.1641C160.271 25.1641 159.341 25.7862 159.341 26.9427V26.9905C159.341 27.9796 160.136 28.5857 161.328 28.5857C163.037 28.5538 164.189 27.6206 164.189 26.2966L164.181 26.2887Z" fill="white"/>
<path d="M170.198 17.8741H173.838V25.0126L178.877 17.8741H182.326V30.843H178.718V23.4413L173.488 30.843H170.23L170.198 17.8741Z" fill="white"/>
<path d="M198 30.843H194.097L190.863 22.3406L187.604 30.843H183.773L189.162 17.8741H192.611L198 30.843Z" fill="white"/>
<path d="M180.689 13.264H171.843V16.1433H180.689V13.264Z" fill="white"/>
</svg>
