<svg width="33" height="22" viewBox="0 0 33 22" fill="none" xmlns="http://www.w3.org/2000/svg">
<path d="M12.0267 3.12305H20.9406V18.7325H12.0267V3.12305Z" fill="#FF5F00"/>
<path d="M12.5927 10.9283C12.5927 7.75678 14.1208 4.94372 16.4694 3.12349C14.7434 1.79975 12.5645 1 10.1875 1C4.55593 1 0 5.44007 0 10.9283C0 16.4163 4.55593 20.8565 10.1873 20.8565C12.5644 20.8565 14.7433 20.0568 16.4694 18.7329C14.1208 16.9403 12.5927 14.0997 12.5927 10.9283Z" fill="#EB001B"/>
<path d="M32.967 10.9283C32.967 16.4163 28.411 20.8565 22.7796 20.8565C20.4026 20.8565 18.2237 20.0568 16.4975 18.7329C18.8746 16.9128 20.3744 14.0997 20.3744 10.9283C20.3744 7.75678 18.8462 4.94372 16.4975 3.12349C18.2236 1.79975 20.4026 1 22.7796 1C28.411 1 32.9671 5.46771 32.9671 10.9283H32.967Z" fill="#F79E1B"/>
</svg>
