<svg id="Layer_1" data-name="Layer 1" xmlns="http://www.w3.org/2000/svg" width="33" height="33" viewBox="0 0 33 33">
  <title>icons</title>
  <circle cx="16.5" cy="16.5" r="16" style="fill: #ee8324"/>
  <g>
    <path id="K" d="M19.67281,16.24159c-0.44123,0-1.32369.89764-3.08861,0.89764s-2.64738-.89764-3.08861-0.89764a0.89047,0.89047,0,0,0-.88246.89764,0.84881,0.84881,0,0,0,.44123.77825c0.52286,0.311,2.20615,1.017,2.20615,1.017l-1.87523,2.44067a1.592,1.592,0,0,0-.33092.70105,0.89047,0.89047,0,0,0,.88246.89764,0.8081,0.8081,0,0,0,.65478-0.29442L16.58421,20.281l1.99259,2.39848a0.8081,0.8081,0,0,0,.65479.29442,0.89047,0.89047,0,0,0,.88246-0.89764,1.592,1.592,0,0,0-.33092-0.70105L17.9079,18.9345s1.68329-.706,2.20615-1.017a0.84881,0.84881,0,0,0,.44123-0.77825A0.89047,0.89047,0,0,0,19.67281,16.24159Z" style="fill: #fff"/>
    <path id="O" d="M16.58421,8.97386a3.14218,3.14218,0,1,0,3.08861,3.14173A3.1155,3.1155,0,0,0,16.58421,8.97386Zm0,4.71259a1.57109,1.57109,0,1,1,1.5443-1.57086A1.55746,1.55746,0,0,1,16.58421,13.68645Z" style="fill: #fff"/>
  </g>
</svg>
