<svg width="25" height="25" viewBox="0 0 25 25" fill="none" xmlns="http://www.w3.org/2000/svg">
<path d="M18.7823 17.3094L23.2438 21.7698L21.7698 23.2438L17.3094 18.7823C15.6498 20.1128 13.5855 20.8364 11.4584 20.8334C6.28337 20.8334 2.08337 16.6334 2.08337 11.4584C2.08337 6.28337 6.28337 2.08337 11.4584 2.08337C16.6334 2.08337 20.8334 6.28337 20.8334 11.4584C20.8364 13.5855 20.1128 15.6498 18.7823 17.3094ZM16.6927 16.5365C18.0147 15.177 18.753 13.3547 18.75 11.4584C18.75 7.42921 15.4865 4.16671 11.4584 4.16671C7.42921 4.16671 4.16671 7.42921 4.16671 11.4584C4.16671 15.4865 7.42921 18.75 11.4584 18.75C13.3547 18.753 15.177 18.0147 16.5365 16.6927L16.6927 16.5365Z" fill="#0C170D"/>
</svg>
