<svg width="13" height="13" viewBox="0 0 13 13" fill="none" xmlns="http://www.w3.org/2000/svg">
<path d="M10.2695 9.3855L12.9464 12.0618L12.062 12.9461L9.38575 10.2693C8.38996 11.0675 7.15137 11.5017 5.87512 11.4999C2.77012 11.4999 0.250122 8.97988 0.250122 5.87488C0.250122 2.76988 2.77012 0.249878 5.87512 0.249878C8.98012 0.249878 11.5001 2.76988 11.5001 5.87488C11.5019 7.15113 11.0678 8.38972 10.2695 9.3855ZM9.01575 8.92175C9.80894 8.10606 10.2519 7.01265 10.2501 5.87488C10.2501 3.45738 8.292 1.49988 5.87512 1.49988C3.45762 1.49988 1.50012 3.45738 1.50012 5.87488C1.50012 8.29175 3.45762 10.2499 5.87512 10.2499C7.01289 10.2517 8.1063 9.8087 8.922 9.0155L9.01575 8.92175Z" fill="#0C170D"/>
</svg>
