<?xml version="1.0" encoding="utf-8"?>
<!-- Generator: Adobe Illustrator 22.0.1, SVG Export Plug-In . SVG Version: 6.00 Build 0)  -->
<svg version="1.1" id="Слой_1" xmlns="http://www.w3.org/2000/svg" xmlns:xlink="http://www.w3.org/1999/xlink" x="0px" y="0px"
	 viewBox="0 0 499.5 497" style="enable-background:new 0 0 499.5 497;" xml:space="preserve">
<style type="text/css">
	.st0{fill:#5969FA;}
	.st1{fill:#FFFFFF;}
</style>
<g>
	<circle class="st0" cx="250.4" cy="248.4" r="240.7"/>
	<path class="st1" d="M250.4,95.1c-84.9,0-153.8,68.9-153.8,153.8c0,53.3,27.1,100.3,68.3,127.9v47.9c0,1.8,1,3.5,2.6,4.4
		c0.7,0.4,1.6,0.6,2.4,0.6c0.9,0,1.9-0.3,2.7-0.8l45.8-29.5c10.3,2.2,21,3.3,31.9,3.3c84.9,0,153.8-68.9,153.8-153.8
		S335.4,95.1,250.4,95.1z M250.4,323.5c-37.9,0-68.6-30.7-68.6-68.6H319C319,292.8,288.3,323.5,250.4,323.5z"/>
</g>
</svg>
