<svg xmlns="http://www.w3.org/2000/svg" width="19" height="10" viewBox="0 0 19 10">
  <path d="M14.7 0C12 0 10.2 2.2 8.6 4.1 7.3 5.8 6 7.4 4.4 7.4S1.8 5.7 1.8 4.6c0-1.1 1.1-2.7 2.8-2.7 1.6 0 2.5 1.3 2.5 1.4.3.4.9.5 1.3.2.5-.2.6-.8.4-1.2C8.7 2.2 7.3 0 4.6 0S0 2.4 0 4.5c0 2.2 1.8 4.7 4.4 4.7 2.4 0 4-2 5.6-3.9 1.4-1.8 2.8-3.5 4.6-3.5 1.1 0 1.8.4 2.2 1.1.3.7.3 1.4.3 1.6 0 .1-.1.9-.4 1.5-.4.8-1 1.1-1.8 1.1-1.7 0-2.6-1.1-2.9-1.5-.1-.1-.2-.2-.2-.3-.4-.3-1-.3-1.3.1-.3.4-.3.9.1 1.3l.1.1c.4.5 1.8 2.2 4.4 2.2 3.1 0 4.1-3 4.1-4.5 0-.9-.2-1.8-.5-2.5-.7-.8-1.8-2-4-2z" fill="#00c750"/>
</svg>