<?xml version="1.0" encoding="utf-8"?>
<!-- Generator: Adobe Illustrator 22.0.1, SVG Export Plug-In . SVG Version: 6.00 Build 0)  -->
<svg version="1.1" id="Capa_1" xmlns="http://www.w3.org/2000/svg" xmlns:xlink="http://www.w3.org/1999/xlink" x="0px" y="0px"
	 viewBox="0 0 455.7 455.7" style="enable-background:new 0 0 455.7 455.7;" xml:space="preserve">
<style type="text/css">
	.st0{fill:#7D3DAF;}
	.st1{fill:#FFFFFF;}
</style>
<circle class="st0" cx="227.9" cy="227.9" r="224.3"/>
<path class="st1" d="M372,156.9l-0.1-0.4c-7.3-29.4-40.1-61-70.2-67.6l-0.3-0.1c-48.8-9.3-98.2-9.3-146.9,0l-0.3,0.1
	c-30.1,6.6-63,38.2-70.2,67.6l-0.1,0.4c-9,41.1-9,82.8,0,123.9l0.1,0.4c7,28.2,37.4,58.3,66.4,66.6v32.9c0,11.9,14.5,17.7,22.7,9.2
	l33.3-34.6c7.2,0.4,14.4,0.6,21.7,0.6c24.5,0,49.1-2.3,73.5-7l0.3-0.1c30.1-6.6,63-38.2,70.2-67.6l0.1-0.4
	C381,239.7,381,198,372,156.9z M296.8,277.6c-4,8.4-9.7,15.4-18,19.9c-2.3,1.3-5.1,1.7-7.8,2.5c-3-0.9-5.9-1.5-8.6-2.7
	c-27.9-11.6-53.6-26.5-74-49.4c-11.6-13-20.6-27.7-28.3-43.3c-3.6-7.4-6.7-15-9.8-22.7c-2.8-6.9,1.3-14.1,5.8-19.4
	c4.1-4.9,9.5-8.7,15.2-11.4c4.5-2.2,8.9-0.9,12.2,2.9c7.1,8.2,13.6,16.9,18.9,26.5c3.3,5.9,2.4,13.1-3.5,17.1
	c-1.4,1-2.7,2.1-4.1,3.2c-1.2,1-2.3,1.9-3.1,3.2c-1.5,2.4-1.5,5.2-0.6,7.8c7.3,20,19.5,35.5,39.6,43.9c3.2,1.3,6.4,2.9,10.2,2.5
	c6.2-0.7,8.2-7.5,12.6-11.1c4.2-3.5,9.7-3.5,14.3-0.6c4.6,2.9,9,6,13.4,9.2c4.3,3.1,8.6,6.1,12.6,9.6
	C297.6,268.6,298.9,273,296.8,277.6z M260.7,212.5c-1.7,0-1.1,0-0.4,0c-2.8-0.1-4.3-1.7-4.6-4.4c-0.2-2-0.4-3.9-0.9-5.8
	c-0.9-3.7-2.9-7.2-6.1-9.5c-1.5-1.1-3.2-1.9-4.9-2.4c-2.2-0.6-4.6-0.5-6.8-1c-2.4-0.6-3.8-2.6-3.4-4.8c0.3-2.1,2.4-3.7,4.6-3.5
	c14.2,1,24.3,8.3,25.7,25c0.1,1.2,0.2,2.4,0,3.5c-0.4,1.8-1.7,2.8-3.1,3C261,212.5,261,212.5,260.7,212.5z M251.9,174.4
	c-4.3-2.1-9-3.4-13.8-4.2c-2.1-0.3-4.2-0.6-6.3-0.8c-2.5-0.4-3.9-2-3.8-4.5c0.1-2.3,1.8-4,4.4-3.9c8.4,0.5,16.5,2.3,23.9,6.2
	c15.2,8,23.8,20.7,26.3,37.6c0.1,0.8,0.3,1.5,0.4,2.3c0.1,1.9,0.2,3.8,0.4,6.3c-0.1,0.5-0.1,1.5-0.4,2.5c-1,3.7-6.5,4.1-7.8,0.4
	c-0.4-1.1-0.4-2.3-0.4-3.5c0-7.7-1.7-15.5-5.6-22.2C265.2,183.7,259.1,177.9,251.9,174.4z M298.7,226.7c-2.9,0-4.2-2.4-4.4-5
	c-0.4-5.2-0.6-10.4-1.4-15.6c-3.8-27.2-25.5-49.7-52.5-54.5c-4.1-0.7-8.2-0.9-12.4-1.4c-2.6-0.3-6-0.4-6.6-3.7
	c-0.5-2.7,1.8-4.9,4.4-5c0.7,0,1.4,0,2.1,0c2.1,0.1,2.1,0.1,0.1,0c36.5,1.1,66.4,25.3,72.8,61.4c1.1,6.2,1.5,12.4,2,18.7
	C303.1,224.1,301.6,226.6,298.7,226.7z"/>
</svg>
