<svg width="47" height="21" viewBox="0 0 47 21" fill="none" xmlns="http://www.w3.org/2000/svg">
<path d="M24.3073 6.77657C24.2805 8.85778 26.1915 10.0191 27.631 10.7096C29.1101 11.4181 29.6069 11.8724 29.601 12.506C29.59 13.4756 28.4212 13.9036 27.3276 13.9202C25.4195 13.9493 24.31 13.4131 23.428 13.0075L22.7407 16.1736C23.6256 16.575 25.2642 16.9251 26.9633 16.9404C30.9519 16.9404 33.5613 15.0024 33.5754 11.9975C33.591 8.18386 28.2167 7.97278 28.2534 6.2682C28.2661 5.75133 28.7671 5.19977 29.865 5.05953C30.4085 4.98868 31.9086 4.93447 33.6094 5.70543L34.277 2.64218C33.3623 2.31435 32.1867 2.00043 30.7231 2.00043C26.969 2.00043 24.3286 3.96489 24.3073 6.77657ZM40.6914 2.26429C39.963 2.26429 39.3493 2.68248 39.0754 3.32422L33.3779 16.7154H37.3635L38.1567 14.5578H43.027L43.4871 16.7154H47L43.9345 2.26429H40.6914ZM41.2489 6.16808L42.3991 11.5946H39.249L41.2489 6.16808ZM19.4749 2.26447L16.3332 16.7152H20.1312L23.2714 2.2641H19.4749V2.26447ZM13.8564 2.2641L9.90323 12.1003L8.30413 3.737C8.1165 2.80338 7.37551 2.26429 6.55264 2.26429H0.0905117L0 2.68392C1.32665 2.9673 2.83395 3.42435 3.74715 3.91338C4.30601 4.21212 4.46537 4.47326 4.64896 5.18314L7.67771 16.7154H11.6912L17.8446 2.26429H13.8564" fill="url(#paint0_linear)"/>
<defs>
<linearGradient id="paint0_linear" x1="21.6078" y1="17.2401" x2="22.0335" y2="1.89615" gradientUnits="userSpaceOnUse">
<stop stop-color="#222357"/>
<stop offset="1" stop-color="#254AA5"/>
</linearGradient>
</defs>
</svg>
