<svg id="Layer_1" data-name="Layer 1" xmlns="http://www.w3.org/2000/svg" width="33" height="33" viewBox="0 0 33 33">
  <title>icons</title>
  <circle cx="16.5" cy="16.5" r="16" style="fill: #4f81b3"/>
  <path id="VK" d="M16.1102,21.17174c0.43274,0,.43274-0.62358.43274-0.86548a0.93073,0.93073,0,0,1,.86548-0.86548,4.18608,4.18608,0,0,1,1.731,1.29822,0.86385,0.86385,0,0,0,.86548.43274h1.29822a0.87647,0.87647,0,0,0,.86548-0.86548c0-.27046-0.29643-0.72917-1.29822-1.731-0.86548-.86548-1.30947-0.41846,0-2.1637a5.24148,5.24148,0,0,0,1.27831-2.30347c-0.0952-.26527-2.31343-0.68762-2.57653-0.293a16.17741,16.17741,0,0,0-1.29822,2.1637c-0.43274.86548-.47558,1.29822-0.86548,1.29822-0.39336,0-.43274-0.83995-0.43274-1.29822,0-1.43064.20728-2.44238-.43274-2.59644H15.24472a2.515,2.515,0,0,0-1.29822.43274,1.50115,1.50115,0,0,0-.43274.43274c0.129,0.01731.86548-.17915,0.86548,0.43274v0.86548s0.00389,1.731-.43274,1.731c-0.43274,0-1.29822-1.731-2.1637-3.02918a0.71516,0.71516,0,0,0-.86548-0.43274c-0.4639,0-.865.01817-1.29822,0.01817-0.43274,0-.48813.27566-0.43274,0.41456a13.94327,13.94327,0,0,0,3.13174,5.23442,4.33335,4.33335,0,0,0,3.35936,1.68942C15.89383,21.18083,15.67746,21.17174,16.1102,21.17174Z" style="fill: #fff"/>
</svg>
