<?xml version="1.0" encoding="utf-8"?>
<!-- Generator: Adobe Illustrator 22.0.1, SVG Export Plug-In . SVG Version: 6.00 Build 0)  -->
<svg version="1.1" id="Capa_1" xmlns="http://www.w3.org/2000/svg" xmlns:xlink="http://www.w3.org/1999/xlink" x="0px" y="0px"
	 viewBox="0 0 455.7 455.7" style="enable-background:new 0 0 455.7 455.7;" xml:space="preserve">
<style type="text/css">
	.st0{fill:#1BD741;}
	.st1{fill:#FFFFFF;}
</style>
<circle class="st0" cx="228.4" cy="227.4" r="223.2"/>
<path class="st1" d="M230.6,77.2c-79.3,0-143.8,64.5-143.8,143.8c0,25.8,6.8,50.8,19.8,72.8l-20.2,71.6l73.9-19
	c21.4,12,45.6,18.3,70.3,18.3c79.3,0,143.8-64.5,143.8-143.8S309.8,77.2,230.6,77.2z M303.8,257.7l-1.5,7
	c-1.7,7.9-6.3,14.8-13.1,19.1c-8.5,5.5-19.6,8.1-33.7,4.2c-43.7-12.3-68.4-41.3-81.6-59.3c-13.3-18.1-18.4-36.1-15.1-50.9
	c2.2-9.9,9.5-17.5,14-21.4c2.2-1.9,5.1-2.9,8-2.7l9.3,0.5c1.8,0.1,3.5,1.2,4.2,2.9l13.6,31.8c0.7,1.7,0.4,3.7-0.8,5.1l-11.8,13.7
	c-1,1.1-1.1,2.7-0.5,4c15.6,30,44,41.9,52.5,44.9c1.4,0.5,3,0,4-1.2l12.4-16c1.4-1.8,3.8-2.4,5.9-1.4l31.5,14.5
	C303.1,253.3,304.2,255.5,303.8,257.7z"/>
</svg>
