<svg id="Layer_1" data-name="Layer 1" xmlns="http://www.w3.org/2000/svg" width="33" height="33" viewBox="0 0 33 33">
  <title>icons</title>
  <circle cx="16.5" cy="16.5" r="16" style="fill: #c61b2a"/>
  <path d="M24.17833,13.46626a3.60693,3.60693,0,0,0-.596-1.58911,2.06945,2.06945,0,0,0-1.50282-.67662c-2.09925-.1627-5.24788-0.1627-5.24788-0.1627h-0.007s-3.14866,0-5.24745.1627a2.07009,2.07009,0,0,0-1.5028.67662,3.61307,3.61307,0,0,0-.596,1.58911,25.77817,25.77817,0,0,0-.15,2.58924V17.269a25.76933,25.76933,0,0,0,.15,2.58973,3.59951,3.59951,0,0,0,.596,1.58768,2.4528,2.4528,0,0,0,1.65379.68411c1.19995,0.12286,5.10021.16084,5.10021,0.16084s3.15192-.00564,5.25117-0.16645a2.07829,2.07829,0,0,0,1.50282-.678,3.60583,3.60583,0,0,0,.596-1.58771,25.77654,25.77654,0,0,0,.15005-2.58973V16.056A25.77654,25.77654,0,0,0,24.17833,13.46626ZM14.95512,19.478V13.85121l4.689,2.81339Z" style="fill: #fff"/>
</svg>
